<svg xmlns="http://www.w3.org/2000/svg" viewBox="0 0 256 256"><defs><style>.cls-1{fill:#fff;}</style></defs><title>FaceBook</title><g id="Layer_2" data-name="Layer 2"><g id="Layer_1-2" data-name="Layer 1"><path class="cls-1" d="M241.87,0H14.13A14.12,14.12,0,0,0,0,14.13V241.87A14.12,14.12,0,0,0,14.13,256H136.74V156.86H103.38V118.23h33.36V89.74c0-33.07,20.19-51.07,49.69-51.07a274,274,0,0,1,29.81,1.52V74.74H195.78c-16,0-19.14,7.63-19.14,18.81v24.67h38.25l-5,38.63H176.64V256h65.23A14.13,14.13,0,0,0,256,241.87V14.13A14.13,14.13,0,0,0,241.87,0Z"/></g></g></svg>