<svg xmlns="http://www.w3.org/2000/svg" viewBox="0 0 256.69 84.16"><defs><style>.cls-1{fill:#fff;}</style></defs><title>Google</title><g id="Layer_2" data-name="Layer 2"><g id="Layer_1-2" data-name="Layer 1"><path id="path2998" class="cls-1" d="M63.11,29.72H33.16v8.89H54.4C53.35,51.07,43,56.39,33.19,56.39A23.36,23.36,0,0,1,9.74,32.73,23.4,23.4,0,0,1,33.22,8.91a23,23,0,0,1,16,6.43l6.23-6.45S47.47,0,32.9,0C14.35,0,0,15.66,0,32.57A33.08,33.08,0,0,0,33.37,65.3c17.49,0,30.28-12,30.28-29.68a26.79,26.79,0,0,0-.54-5.9Z"/><path id="path3000" class="cls-1" d="M87.64,23.29A20.72,20.72,0,0,0,66.55,44.1,20.79,20.79,0,0,0,87.79,65.26,20.58,20.58,0,0,0,108.7,44.35c0-13.91-11-21.06-21.06-21.06Zm.13,8.24c6,0,11.77,4.89,11.77,12.76C99.54,52,93.84,57,87.74,57c-6.7,0-12-5.36-12-12.79,0-7.27,5.22-12.7,12-12.7Z"/><path id="path3005" class="cls-1" d="M133.53,23.29a20.73,20.73,0,0,0-21.1,20.81,21.08,21.08,0,0,0,42.16.25c0-13.91-11-21.06-21.06-21.06Zm.12,8.24c6,0,11.77,4.89,11.77,12.76,0,7.71-5.7,12.73-11.79,12.73-6.7,0-12-5.36-12-12.79,0-7.27,5.22-12.7,12-12.7Z"/><path id="path3007" class="cls-1" d="M178.54,23.31c-11.28,0-20.15,9.88-20.15,21,0,12.63,10.28,21,20,21,6,0,9.16-2.38,11.51-5.1v4.14c0,7.24-4.39,11.57-11,11.57a11.62,11.62,0,0,1-10.74-7.47L160,71.8c2.86,6,8.62,12.36,18.88,12.36,11.21,0,19.76-7.06,19.76-21.88V24.57h-8.8v3.56a14.81,14.81,0,0,0-11.31-4.82Zm.81,8.23c5.53,0,11.21,4.72,11.21,12.78S184.9,57,179.23,57c-6,0-11.61-4.88-11.61-12.64,0-8.06,5.81-12.86,11.73-12.86Z"/><path id="path3011" class="cls-1" d="M237.78,23.26c-10.64,0-19.58,8.46-19.58,21,0,13.22,10,21.06,20.6,21.06,8.88,0,14.33-4.86,17.58-9.21l-7.25-4.83A11.76,11.76,0,0,1,238.84,57c-5.9,0-8.61-3.23-10.29-6.36L256.69,39l-1.46-3.42c-2.72-6.7-9.06-12.3-17.45-12.3Zm.36,8.07a8.37,8.37,0,0,1,7.77,4.48l-18.79,7.86c-.81-6.08,4.95-12.34,11-12.34Z"/><path id="path3015" class="cls-1" d="M204.78,64H214V2.17h-9.25Z"/></g></g></svg>