<svg xmlns="http://www.w3.org/2000/svg" viewBox="0 0 175.75 51.63"><defs><style>.cls-1{fill:#fff;fill-rule:evenodd;}</style></defs><title>National Geographic</title><g id="Layer_2" data-name="Layer 2"><g id="Isolation_Mode" data-name="Isolation Mode"><path class="cls-1" d="M0,0H36V51.63H0V0ZM5.19,46.44H30.82V5.2H5.19V46.44Z"/><path class="cls-1" d="M60,23.17H57.74C54.82,19,51.91,14.92,49,10.27h0v12.9H46.53v-18h2.23c2.92,4.11,5.82,8.19,8.7,12.81h0V5.19H60v18Z"/><path class="cls-1" d="M65.83,16.05c.72-2.36,1.44-4.54,2.08-7.32h0c.72,2.78,1.36,5,2,7.32ZM67,5.19l-6.21,18h2.67L65,18.26h5.42l1.41,4.91h3.45l-5.73-18Z"/><polygon class="cls-1" points="78.2 23.17 78.2 7.6 73.48 7.6 73.48 5.19 86.01 5.19 86.01 7.6 81.28 7.6 81.28 23.17 78.2 23.17 78.2 23.17"/><polygon class="cls-1" points="87.01 5.19 90.07 5.19 90.07 23.17 87.01 23.17 87.01 5.19 87.01 5.19"/><path class="cls-1" d="M99.57,20.9c-3.22,0-4.35-3.54-4.35-7s1.29-6.47,4.35-6.47,4.33,3.16,4.33,6.47-1.13,7-4.33,7Zm0,2.57c4.69,0,7.62-4.18,7.62-9.55,0-5-3.23-9-7.62-9s-7.64,4-7.64,9c0,5.37,2.94,9.55,7.64,9.55Z"/><path class="cls-1" d="M122.52,23.17h-2.23c-2.93-4.14-5.84-8.25-8.74-12.9h0v12.9h-2.46v-18h2.23c2.92,4.11,5.83,8.19,8.7,12.81h0V5.19h2.47v18Z"/><path class="cls-1" d="M128.37,16.05c.72-2.36,1.44-4.54,2.08-7.32h.05c.72,2.78,1.36,5,2,7.32Zm1.18-10.86-6.21,18H126l1.57-4.91H133l1.42,4.91h3.44l-5.73-18Z"/><polygon class="cls-1" points="138.74 5.19 141.8 5.19 141.8 20.75 147.88 20.75 147.88 23.17 138.74 23.17 138.74 5.19 138.74 5.19"/><path class="cls-1" d="M58.08,38.2v7.42A14.2,14.2,0,0,1,53,46.72c-5.29,0-8.63-4.11-8.63-9.4,0-4.9,3.34-9.19,8.73-9.19a7.7,7.7,0,0,1,4.37,1.39l-1,2.13a6.76,6.76,0,0,0-3.29-.95c-3.28,0-5.52,2.6-5.52,6.68,0,4.26,2.57,6.77,5.21,6.77A4.45,4.45,0,0,0,55,43.72V38.2Z"/><polygon class="cls-1" points="69.1 30.86 63.96 30.86 63.96 35.79 68.99 35.79 68.99 38.2 63.96 38.2 63.96 44 70.02 44 70.02 46.42 60.88 46.42 60.88 28.44 69.1 28.44 69.1 30.86 69.1 30.86"/><path class="cls-1" d="M78.6,44.15c-3.22,0-4.35-3.54-4.35-7s1.29-6.47,4.35-6.47,4.33,3.16,4.33,6.47-1.13,7-4.33,7Zm0,2.57c4.69,0,7.62-4.18,7.62-9.55,0-5-3.23-9-7.62-9s-7.63,4-7.63,9c0,5.37,2.92,9.55,7.63,9.55Z"/><path class="cls-1" d="M101,38.2v7.42a14.25,14.25,0,0,1-5.11,1.1c-5.29,0-8.63-4.11-8.63-9.4,0-4.9,3.34-9.19,8.73-9.19a7.64,7.64,0,0,1,4.36,1.39l-1,2.13a6.69,6.69,0,0,0-3.28-.95c-3.29,0-5.53,2.6-5.53,6.68,0,4.26,2.57,6.77,5.22,6.77a4.47,4.47,0,0,0,2.16-.43V38.2Z"/><path class="cls-1" d="M106.92,30.86h1.36a2.61,2.61,0,0,1,2.84,2.9c0,2.41-1.46,3.49-2.92,3.56-.31,0-1,.06-1.28.08V30.86Zm7.8,15.56L111.09,39a6,6,0,0,0,3.12-5.34c0-3.5-2.14-5.19-5.58-5.19h-4.8v18h3.09V39.64h1.38l2.9,6.78Z"/><path class="cls-1" d="M119.8,39.3c.72-2.36,1.44-4.54,2.08-7.32h.05c.72,2.78,1.36,5,2,7.32ZM121,28.44l-6.21,18h2.67L119,41.51h5.42l1.4,4.91h3.45l-5.73-18Z"/><path class="cls-1" d="M135.05,28.44h-4.8v18h3.08V39.64h1.38a5.87,5.87,0,0,0,5.91-6c0-3.5-2.13-5.19-5.57-5.19Zm-.43,8.88c-.32,0-1.08.06-1.29.08V30.86h1.38a2.6,2.6,0,0,1,2.83,2.9c0,2.41-1.46,3.49-2.92,3.56Z"/><polygon class="cls-1" points="154.9 46.42 151.82 46.42 151.82 37.77 145.42 37.77 145.42 46.42 142.37 46.42 142.37 28.44 145.42 28.44 145.42 35.35 151.82 35.35 151.82 28.49 154.9 28.49 154.9 46.42 154.9 46.42"/><polygon class="cls-1" points="157.85 28.44 160.91 28.44 160.91 46.42 157.85 46.42 157.85 28.44 157.85 28.44"/><path class="cls-1" d="M174.77,31.7a6.49,6.49,0,0,0-3.16-1c-3.14,0-5.41,2.6-5.41,6.68,0,4.26,2.51,6.77,5.49,6.77a5.77,5.77,0,0,0,3.08-.9l.85,2.24a7.86,7.86,0,0,1-4.06,1.23c-5.29,0-8.63-4.11-8.63-9.4,0-4.9,3.31-9.19,8.68-9.19a7.58,7.58,0,0,1,4.14,1.39l-1,2.18Z"/></g></g></svg>