<svg xmlns="http://www.w3.org/2000/svg" viewBox="0 0 175.75 144.05"><defs><style>.cls-1,.cls-2{fill:#fff;}.cls-1{fill-rule:evenodd;}</style></defs><title>Toyota</title><g id="Layer_2" data-name="Layer 2"><g id="Layer_1-2" data-name="Layer 1"><path class="cls-1" d="M87.67,128.41a15.58,15.58,0,0,1,15.64-15.64,15.64,15.64,0,1,1-15.64,15.64Zm15.64,9.88c4.7-.07,8.59-4.49,8.64-9.88s-3.94-9.91-8.64-9.88c-4.9,0-8.79,4.39-8.64,9.88-.15,5.39,3.74,9.81,8.64,9.88Z"/><polygon class="cls-1" points="136.65 119.36 136.65 143.23 130.06 143.23 130.06 119.36 120.59 119.36 120.59 114.01 145.7 114.01 145.7 119.36 136.65 119.36 136.65 119.36"/><path class="cls-1" d="M153.52,136.64l-2.47,6.59h-7.81L155.58,114h8.23l11.94,29.22h-7.82l-2.47-6.59Zm6.18-4.94h4.11L159.7,121l-4.12,10.7Z"/><polygon class="cls-1" points="15.64 119.36 15.64 143.23 9.05 143.23 9.05 119.36 0 119.36 0 114.01 24.69 114.01 24.69 119.36 15.64 119.36 15.64 119.36"/><path class="cls-1" d="M26.34,128.41a15.64,15.64,0,0,1,31.28,0A15.93,15.93,0,0,1,42,144.05a15.77,15.77,0,0,1-15.64-15.64ZM42,138.29c4.75-.07,8.64-4.49,8.64-9.88s-3.89-9.91-8.64-9.88-8.75,4.39-8.64,9.88c-.11,5.39,3.78,9.81,8.64,9.88Z"/><polygon class="cls-1" points="72.44 143.23 75.73 143.23 75.73 132.12 87.25 114.01 79.85 114.01 72.44 126.35 65.44 114.01 57.62 114.01 69.15 132.12 69.15 143.23 72.44 143.23 72.44 143.23"/><path class="cls-2" d="M86.12,0c-44.1,0-80,22.3-80,49.71S42,99.42,86.12,99.42s80-22.3,80-49.71S130.21,0,86.12,0Zm41.09,21.66a4.54,4.54,0,0,1,.28,1.53,4.87,4.87,0,0,1-.72,2.47c-2.32,3.94-10.11,7.39-20.87,9.27C104,23.72,100,14.78,94.74,10,111.91,11.25,125.2,16,127.21,21.66Zm-41.09-.43c4.09,0,7.67,5.73,9.4,15-3.07.22-6.23.34-9.4.34s-6.34-.12-9.41-.34C78.44,27,82,21.23,86.12,21.23ZM45,21.66C47,16,60.32,11.25,77.49,10c-5.22,4.74-9.26,13.68-11.16,24.89-10.75-1.88-18.55-5.33-20.87-9.27a5,5,0,0,1-.71-2.47A4.53,4.53,0,0,1,45,21.66ZM20.15,50.44c0-8.22,4.15-16.09,12-22.81,2.39,8.83,14.92,16.3,33,19.62,0,.53,0,2.89,0,2.89,0,17.65,4.48,32.65,11.73,39.67C44.44,87.05,20.15,70.26,20.15,50.44Zm66,25.73c-5.88,0-10.49-12.08-10.49-27.51v0c3.43.29,7,.44,10.49.44s7.06-.15,10.48-.44v0C96.6,64.09,92,76.17,86.12,76.17Zm9.29,13.64c7.26-7,11.73-22,11.73-39.67,0,0,0-2.36,0-2.89,18.11-3.32,30.63-10.79,33-19.62,7.81,6.72,12,14.59,12,22.81C152.08,70.26,127.79,87.05,95.41,89.81Z"/></g></g></svg>