<svg xmlns="http://www.w3.org/2000/svg" viewBox="0 0 228.17 50.77"><defs><style>.cls-1{fill:#fff;}</style></defs><title>Wix 256px</title><g id="Layer_2" data-name="Layer 2"><g id="Layer_2-2" data-name="Layer 2"><g id="_Group_" data-name="&lt;Group&gt;"><path id="_Compound_Path_" data-name="&lt;Compound Path&gt;" class="cls-1" d="M132.6,50.17V45h2.56v5.17Z"/><path id="_Compound_Path_2" data-name="&lt;Compound Path&gt;" class="cls-1" d="M160.33,32.36a7.51,7.51,0,0,0-.87-3,6.9,6.9,0,0,0-1.88-2.16,8.52,8.52,0,0,0-2.69-1.3,11.56,11.56,0,0,0-3.28-.45,8.94,8.94,0,0,0-4.27,1,9.45,9.45,0,0,0-3.11,2.6,11.92,11.92,0,0,0-1.91,3.72,14.44,14.44,0,0,0-.65,4.29,18.26,18.26,0,0,0,.6,4.81,10.82,10.82,0,0,0,1.86,3.84,8.63,8.63,0,0,0,3.11,2.54,9.91,9.91,0,0,0,4.37.9,9,9,0,0,0,3.33-.6,9.23,9.23,0,0,0,2.71-1.66,8.5,8.5,0,0,0,1.93-2.53,10.48,10.48,0,0,0,1-3.24h1.9a11.72,11.72,0,0,1-1.28,4.11,10.43,10.43,0,0,1-2.41,3,10.07,10.07,0,0,1-3.26,1.88,11.49,11.49,0,0,1-3.93.65,11.9,11.9,0,0,1-5.4-1.12,10.37,10.37,0,0,1-3.66-3,12.87,12.87,0,0,1-2.11-4.39,19.75,19.75,0,0,1-.68-5.19,16.48,16.48,0,0,1,.78-5.12,12.63,12.63,0,0,1,2.28-4.22,10.94,10.94,0,0,1,3.72-2.85,11.52,11.52,0,0,1,5.07-1.06,14.19,14.19,0,0,1,3.93.53,10.19,10.19,0,0,1,3.26,1.58,8.22,8.22,0,0,1,2.34,2.66,9.4,9.4,0,0,1,1.1,3.81Z"/><path id="_Compound_Path_3" data-name="&lt;Compound Path&gt;" class="cls-1" d="M165.75,37.28a16.88,16.88,0,0,1,.78-5.19,13.12,13.12,0,0,1,2.28-4.3,10.94,10.94,0,0,1,3.72-2.93,12.42,12.42,0,0,1,10.13,0,10.9,10.9,0,0,1,3.71,2.93,13,13,0,0,1,2.29,4.3,17.19,17.19,0,0,1,.77,5.19,17.48,17.48,0,0,1-.77,5.22,12.81,12.81,0,0,1-2.29,4.29,11,11,0,0,1-3.71,2.91,12.52,12.52,0,0,1-10.13,0,11,11,0,0,1-3.72-2.91,13,13,0,0,1-2.28-4.29A17.17,17.17,0,0,1,165.75,37.28Zm1.91,0a15.24,15.24,0,0,0,.65,4.44,12.18,12.18,0,0,0,1.91,3.79,9.2,9.2,0,0,0,3.11,2.63,9.77,9.77,0,0,0,8.53,0A9.4,9.4,0,0,0,185,45.51a12.4,12.4,0,0,0,1.91-3.79,15.49,15.49,0,0,0,0-8.88A12.28,12.28,0,0,0,185,29.05a9.4,9.4,0,0,0-3.11-2.63,9.77,9.77,0,0,0-8.53,0,9.2,9.2,0,0,0-3.11,2.63,12.07,12.07,0,0,0-1.91,3.79A15.24,15.24,0,0,0,167.66,37.28Z"/><path id="_Compound_Path_4" data-name="&lt;Compound Path&gt;" class="cls-1" d="M194,24.38h1.91v5.27h.1a6.92,6.92,0,0,1,1-2.28,8,8,0,0,1,1.83-1.88,8.51,8.51,0,0,1,2.41-1.26,8.61,8.61,0,0,1,2.78-.45,9.6,9.6,0,0,1,3.21.48,7.48,7.48,0,0,1,2.31,1.25,6.24,6.24,0,0,1,1.51,1.76,6.49,6.49,0,0,1,.75,2h.1A9.55,9.55,0,0,1,215,25.19a8.41,8.41,0,0,1,5.09-1.41,9.56,9.56,0,0,1,3.23.53,6.73,6.73,0,0,1,2.56,1.6,7.3,7.3,0,0,1,1.68,2.74,11.23,11.23,0,0,1,.61,3.91V50.17h-1.91V32.51a8.24,8.24,0,0,0-.75-3.86,6,6,0,0,0-1.78-2.13,5.1,5.1,0,0,0-2.06-.91,11,11,0,0,0-1.58-.17,8.57,8.57,0,0,0-3.24.6,6.85,6.85,0,0,0-2.56,1.81,8.37,8.37,0,0,0-1.68,3,12.8,12.8,0,0,0-.6,4.09V50.17H210.1V32.51a8.65,8.65,0,0,0-.72-3.84,5.9,5.9,0,0,0-1.71-2.13,5,5,0,0,0-2-.9,8.35,8.35,0,0,0-1.63-.2,8.07,8.07,0,0,0-5.47,2.25,8.62,8.62,0,0,0-1.95,3,11,11,0,0,0-.75,4.26V50.17H194Z"/><g id="_Group_2" data-name="&lt;Group&gt;"><g id="_Group_3" data-name="&lt;Group&gt;"><path id="_Path_" data-name="&lt;Path&gt;" class="cls-1" d="M73.77.94c-2.55,1.33-3.5,3.6-3.5,9.84a10,10,0,0,1,3.21-1.95,13.22,13.22,0,0,0,3.28-1.78c2.16-1.58,2.5-3.62,2.5-7C79.26,0,75.74-.09,73.77.94Z"/><path id="_Path_2" data-name="&lt;Path&gt;" class="cls-1" d="M58.62,2.4a9.8,9.8,0,0,0-2.69,4.76L49,33.89,43.29,12a18.79,18.79,0,0,0-3.16-7.15c-2-2.48-6.16-2.63-6.6-2.63S29,2.39,26.94,4.87A18.49,18.49,0,0,0,23.78,12L18,33.89,11.14,7.16A9.8,9.8,0,0,0,8.45,2.4C5.07-.58,0,.06,0,.06L13.21,50s4.36.31,6.54-.8c2.86-1.46,4.23-2.59,6-9.38C27.26,33.77,31.58,16,32,14.7c.2-.62.45-2.12,1.55-2.12s1.36,1.5,1.55,2.12c.4,1.27,4.73,19.07,6.27,25.13,1.74,6.79,3.1,7.92,6,9.38,2.18,1.11,6.53.8,6.53.8L67.07.06S62-.58,58.62,2.4Z"/><path id="_Path_3" data-name="&lt;Path&gt;" class="cls-1" d="M79.25,8.21a8,8,0,0,1-2.71,2.33c-1.21.68-2.37,1.14-3.62,1.74-2.09,1-2.65,2.12-2.65,3.82V50s3.33.42,5.51-.69c2.81-1.43,3.45-2.81,3.48-9V10h0Z"/><path id="_Path_4" data-name="&lt;Path&gt;" class="cls-1" d="M112.18,25.15,129,.22s-7.08-1.2-10.58,2a40.1,40.1,0,0,0-4.75,5.71l-6.17,8.89a1.38,1.38,0,0,1-2.63,0L98.65,7.92a39.73,39.73,0,0,0-4.74-5.71C90.4-1,83.33.22,83.33.22l16.76,24.93L83.37,50s7.37.93,10.87-2.26a33.25,33.25,0,0,0,4.41-5.36l6.17-8.89a1.38,1.38,0,0,1,2.63,0l6.17,8.89a37.85,37.85,0,0,0,4.54,5.36C121.66,50.94,128.9,50,128.9,50Z"/></g></g></g></g></g></svg>